<?xml version="1.0" standalone="no"?>
<!DOCTYPE svg PUBLIC "-//W3C//DTD SVG 20010904//EN"
 "http://www.w3.org/TR/2001/REC-SVG-20010904/DTD/svg10.dtd">
<svg version="1.0" xmlns="http://www.w3.org/2000/svg"
 width="2620.000000pt" height="4260.000000pt" viewBox="0 0 2620.000000 4260.000000"
 preserveAspectRatio="xMidYMid meet">
<metadata>
Created by potrace 1.16, written by Peter Selinger 2001-2019
</metadata>
<g transform="translate(0.000000,4260.000000) scale(0.100000,-0.100000)"
fill="#000000" stroke="none">
<path d="M17910 42009 c-69 -4 -150 -13 -180 -19 -31 -5 -116 -15 -190 -20
-74 -6 -160 -17 -191 -25 -31 -8 -69 -15 -84 -15 -60 0 -500 -92 -670 -140
-77 -22 -145 -40 -151 -40 -25 0 -436 -140 -564 -193 -284 -116 -595 -268
-785 -384 -412 -250 -677 -460 -996 -788 -284 -292 -575 -699 -747 -1043 -48
-97 -67 -172 -43 -172 36 0 154 136 263 303 36 56 96 147 131 202 217 332 675
733 1130 989 61 34 135 77 163 95 150 92 514 251 850 372 345 123 892 258
1174 290 47 5 121 16 165 25 135 26 784 65 980 59 72 -3 213 -7 314 -10 101
-3 189 -9 195 -12 5 -4 62 -10 126 -14 204 -14 314 -27 350 -42 20 -9 79 -20
131 -26 53 -6 115 -18 139 -26 23 -8 53 -15 66 -15 24 0 192 -38 290 -66 28
-8 59 -14 69 -14 19 0 161 -44 213 -66 18 -8 47 -14 65 -14 18 0 41 -6 52 -13
11 -8 45 -22 75 -32 30 -9 87 -29 125 -42 39 -14 88 -32 110 -39 22 -8 51 -20
65 -28 14 -7 59 -25 100 -39 76 -27 124 -49 171 -80 14 -9 50 -25 80 -35 77
-27 175 -78 182 -96 3 -8 20 -17 38 -21 18 -4 74 -38 124 -75 51 -38 111 -78
133 -89 22 -11 61 -39 87 -61 25 -22 50 -40 55 -40 5 0 31 -17 58 -37 27 -21
66 -51 88 -68 21 -16 66 -52 99 -80 33 -28 85 -70 116 -93 30 -23 62 -53 69
-67 7 -14 29 -37 47 -51 18 -14 64 -57 102 -95 l69 -71 36 17 c102 49 306 349
306 451 0 34 -6 46 -37 76 -21 19 -61 60 -90 91 -29 31 -65 64 -80 74 -15 9
-51 40 -79 68 -57 56 -194 172 -268 225 -26 19 -64 50 -84 67 -20 18 -45 36
-57 39 -11 4 -49 28 -85 54 -36 26 -77 53 -91 61 -15 8 -55 29 -90 48 -35 18
-77 44 -92 57 -16 13 -34 24 -42 24 -14 0 -92 46 -169 99 -27 18 -63 37 -80
41 -49 13 -95 30 -171 65 -38 18 -86 36 -105 40 -19 4 -42 13 -50 19 -8 7 -46
23 -85 36 -38 12 -82 29 -97 36 -34 17 -103 40 -147 48 -19 3 -41 12 -49 19
-14 11 -33 17 -152 47 -25 6 -65 18 -90 26 -103 35 -269 76 -415 104 -33 6
-100 20 -148 32 -48 11 -132 24 -185 29 -53 4 -119 12 -147 18 -63 12 -223 27
-481 46 -215 16 -716 18 -934 4z"/>
<path d="M18207 39734 c-5 -5 -212 -27 -322 -33 -60 -4 -166 -19 -235 -33 -69
-14 -150 -31 -180 -37 -202 -40 -312 -69 -515 -139 -127 -43 -246 -87 -265
-97 -19 -10 -86 -40 -148 -66 -233 -98 -576 -305 -803 -484 -204 -161 -422
-375 -574 -565 -202 -252 -359 -560 -287 -560 30 0 87 48 222 185 262 266 546
474 891 654 204 106 508 232 642 267 34 8 110 30 168 49 130 42 413 105 470
105 23 0 96 11 163 24 85 17 175 27 301 32 509 20 875 -4 1195 -76 47 -11 123
-25 170 -31 50 -7 103 -22 129 -36 25 -13 61 -23 85 -23 24 0 55 -9 74 -20 44
-27 110 -49 179 -60 31 -5 63 -16 72 -23 28 -25 154 -84 204 -96 27 -6 83 -31
126 -56 43 -25 82 -45 86 -45 20 0 191 -95 204 -113 8 -10 37 -30 65 -42 29
-13 58 -30 66 -40 7 -9 34 -27 59 -40 25 -13 64 -42 86 -64 40 -42 65 -49 100
-28 146 86 411 472 417 604 2 50 -4 58 -55 84 -23 12 -61 39 -84 60 -24 22
-50 39 -58 39 -8 0 -35 18 -58 39 -23 22 -56 43 -72 46 -17 4 -52 22 -80 40
-27 17 -76 48 -108 69 -32 20 -92 50 -132 66 -41 15 -92 41 -112 58 -36 28
-135 64 -215 78 -21 3 -42 12 -48 19 -15 18 -133 61 -187 69 -23 3 -57 15 -75
26 -18 10 -60 22 -93 26 -33 3 -107 21 -165 40 -60 19 -169 42 -255 55 -82 11
-188 27 -234 35 -46 8 -101 14 -123 14 -21 0 -58 4 -81 10 -37 8 -602 21 -610
14z"/>
<path d="M18255 37830 c-27 -4 -104 -13 -170 -19 -363 -35 -865 -214 -1205
-429 -85 -54 -228 -163 -298 -227 -191 -175 -435 -541 -437 -655 0 -33 4 -45
16 -48 10 -2 61 27 115 65 199 136 271 182 390 246 220 120 439 204 679 262
216 51 344 75 440 82 138 10 497 10 590 0 96 -10 299 -46 359 -63 26 -8 58
-14 70 -14 11 0 68 -16 126 -35 58 -20 124 -40 148 -46 23 -5 84 -30 135 -55
51 -25 105 -50 121 -54 58 -18 136 35 248 169 134 161 251 366 264 463 6 41 4
49 -19 70 -13 13 -71 38 -128 57 -57 19 -118 42 -135 51 -32 18 -137 54 -189
64 -16 4 -59 15 -95 25 -106 31 -200 51 -275 57 -38 3 -85 10 -103 16 -39 12
-92 15 -382 21 -118 3 -237 1 -265 -3z"/>
<path d="M17845 35899 c-11 -4 -46 -8 -78 -8 -36 -1 -97 -14 -165 -35 -59 -19
-170 -53 -247 -76 -405 -122 -694 -279 -1023 -553 -46 -38 -86 -67 -89 -64 -3
3 7 44 21 91 29 92 39 196 20 203 -7 2 -73 -61 -147 -141 -273 -292 -510 -483
-877 -706 -77 -47 -300 -156 -390 -191 -41 -16 -87 -36 -101 -44 -15 -8 -51
-21 -81 -29 -30 -8 -77 -24 -104 -35 -69 -30 -211 -69 -329 -92 -55 -10 -145
-30 -200 -43 -55 -14 -124 -27 -154 -30 -29 -3 -60 -11 -68 -18 -36 -29 -103
-199 -118 -295 -9 -55 -30 -81 -107 -128 -483 -294 -878 -674 -1181 -1135
-272 -416 -493 -938 -616 -1460 -64 -272 -91 -383 -102 -420 -39 -134 -63
-278 -49 -300 13 -21 30 -1 66 74 32 65 48 115 121 356 263 870 737 1634 1338
2156 81 71 244 194 257 194 4 0 57 31 116 68 213 136 465 262 652 327 83 29
178 83 202 115 10 14 35 66 57 115 43 101 68 125 159 151 101 30 545 238 592
278 8 7 42 28 75 46 90 51 255 169 392 282 45 38 86 68 91 68 6 0 13 -12 16
-26 4 -14 13 -24 21 -22 7 2 63 48 123 103 187 171 318 272 493 380 74 45 205
114 218 115 8 0 28 10 45 23 46 34 121 67 163 74 21 3 54 16 73 28 44 30 382
163 515 204 131 40 315 84 322 77 3 -3 10 -29 14 -57 5 -32 17 -61 31 -76 42
-45 14 -53 -257 -73 -72 -5 -156 -17 -188 -25 -32 -8 -71 -15 -87 -15 -16 0
-54 -9 -84 -21 -50 -18 -57 -25 -79 -72 -48 -102 -83 -338 -58 -385 14 -27 68
-30 133 -8 47 16 162 38 218 41 19 1 55 7 80 12 25 6 101 12 170 12 94 2 142
7 193 23 55 16 74 18 93 9 36 -16 69 -14 87 7 34 37 65 146 82 284 3 32 10 60
15 63 5 3 27 -3 49 -15 22 -11 46 -20 54 -20 8 0 26 -11 41 -25 15 -14 32 -25
38 -25 5 0 23 -11 40 -25 16 -14 37 -25 47 -25 9 0 28 -13 43 -30 14 -16 36
-30 48 -30 12 0 38 -14 58 -31 20 -17 49 -37 66 -44 17 -8 49 -32 71 -54 21
-23 43 -41 47 -41 14 0 70 -43 96 -72 13 -16 30 -28 37 -28 15 0 76 -48 147
-116 26 -24 51 -44 56 -44 5 0 47 -36 93 -81 46 -44 107 -98 135 -119 28 -21
76 -67 105 -101 30 -35 72 -81 95 -103 23 -23 60 -67 83 -98 23 -32 55 -68 72
-80 17 -13 55 -55 84 -93 29 -39 67 -86 85 -105 18 -19 66 -82 106 -140 40
-58 89 -125 109 -149 20 -24 48 -66 62 -95 14 -28 36 -64 48 -81 13 -16 30
-45 39 -63 17 -32 16 -36 -8 -110 -52 -156 -137 -562 -175 -833 -60 -426 -85
-786 -85 -1214 0 -463 33 -942 84 -1211 59 -310 93 -479 116 -569 38 -150 129
-455 168 -564 22 -61 21 -67 -28 -237 -82 -280 -121 -471 -183 -894 -27 -187
-25 -634 5 -905 54 -492 152 -923 289 -1270 204 -517 511 -968 863 -1267 220
-187 214 -180 288 -310 110 -194 264 -510 359 -733 36 -84 153 -405 230 -629
192 -563 312 -1195 354 -1863 20 -332 1 -848 -42 -1128 -37 -244 -50 -315
-103 -550 -13 -60 -27 -135 -31 -165 -21 -155 -250 -811 -464 -1328 -433
-1042 -922 -1931 -1482 -2687 -145 -196 -209 -304 -364 -610 -316 -627 -545
-1292 -721 -2099 -216 -987 -276 -2028 -174 -3041 48 -482 178 -1141 311
-1575 27 -91 64 -210 81 -265 51 -166 150 -426 164 -432 8 -3 21 1 30 8 13 10
17 10 25 -2 5 -8 9 -18 9 -22 1 -41 340 -752 441 -924 30 -51 74 -128 98 -170
25 -43 81 -134 126 -203 44 -69 94 -146 110 -172 17 -26 36 -50 43 -53 38 -15
87 157 87 311 0 96 -1 103 -30 142 -50 68 -345 552 -345 565 0 2 -21 42 -46
88 -76 136 -177 343 -252 514 -79 181 -88 207 -96 287 -3 31 -35 141 -70 245
-196 573 -321 1113 -400 1723 -58 451 -61 502 -61 1030 0 613 23 932 101 1389
173 1022 570 2033 1126 2865 209 313 404 561 664 842 120 130 139 160 173 270
11 40 39 98 62 130 434 628 784 1372 1028 2193 385 1291 492 2790 291 4096
-87 567 -238 1159 -429 1688 -96 269 -245 617 -353 828 -47 93 -54 101 -168
198 -221 189 -471 466 -643 712 -563 809 -806 1740 -666 2557 27 160 35 187
70 226 59 68 99 210 99 356 0 74 -4 92 -46 193 -92 224 -214 637 -278 942
-122 585 -181 1353 -147 1921 18 302 59 603 123 889 61 276 103 425 141 501
66 130 93 358 53 449 -9 21 -20 42 -24 45 -14 10 -59 76 -92 135 -19 33 -54
87 -78 120 -24 33 -53 77 -63 97 -11 21 -39 60 -64 88 -24 28 -52 64 -61 81
-8 17 -49 70 -91 118 -41 47 -96 118 -123 156 -26 39 -57 75 -67 82 -11 6 -45
45 -76 86 -32 42 -107 127 -168 189 -61 62 -148 156 -194 208 -90 103 -147
153 -198 175 -17 7 -50 32 -72 54 -21 23 -45 41 -52 41 -14 0 -53 33 -122 103
-21 20 -44 37 -51 37 -7 0 -33 18 -59 39 -26 22 -65 47 -86 57 -22 11 -58 33
-79 51 -22 18 -46 33 -53 33 -7 0 -33 18 -57 40 -24 22 -52 40 -63 40 -11 0
-30 11 -43 25 -13 14 -31 25 -40 25 -9 0 -27 11 -40 25 -13 14 -33 25 -45 25
-34 0 -45 20 -45 80 0 30 -5 71 -10 90 -9 34 -14 37 -67 48 -32 6 -69 11 -83
11 -22 -1 -116 5 -235 15 -22 2 -49 -1 -60 -5z"/>
<path d="M17342 34269 c-22 -52 -30 -83 -37 -159 -42 -432 -49 -563 -49 -910
0 -285 8 -497 29 -735 46 -516 147 -1068 281 -1533 10 -35 26 -21 47 38 20 59
24 37 -48 315 -77 304 -178 867 -200 1116 -2 30 -11 128 -19 219 -44 487 -41
1000 8 1545 7 77 11 142 10 144 -2 2 -12 -16 -22 -40z"/>
<path d="M16948 34283 c-16 -19 -86 -163 -107 -223 -7 -19 -17 -44 -22 -55
-16 -38 -106 -290 -118 -330 -7 -22 -16 -49 -21 -60 -5 -11 -11 -29 -13 -40
-3 -11 -32 -110 -65 -220 -33 -110 -78 -281 -101 -380 -23 -99 -48 -207 -56
-240 -19 -82 -65 -334 -65 -358 0 -20 0 -20 21 -1 30 27 47 74 68 188 117 618
262 1128 461 1619 46 113 50 137 18 100z"/>
<path d="M17837 34203 c7 -57 25 -104 88 -238 106 -222 211 -427 260 -505 12
-19 36 -63 52 -96 17 -34 52 -94 77 -132 25 -39 46 -74 46 -77 0 -4 74 -118
165 -253 200 -300 181 -272 285 -410 47 -63 92 -124 100 -136 29 -42 168 -204
172 -201 2 3 1 29 -2 58 -5 50 -13 63 -137 218 -71 90 -150 192 -174 227 -24
34 -63 88 -86 119 -81 112 -183 264 -183 273 0 6 -4 10 -8 10 -5 0 -27 33 -51
73 -59 102 -62 107 -96 157 -17 25 -43 70 -59 100 -16 30 -41 73 -56 95 -33
48 -266 506 -335 658 -27 59 -52 107 -57 107 -4 0 -5 -21 -1 -47z"/>
<path d="M17644 34144 c-7 -56 -2 -163 20 -419 3 -38 8 -86 10 -105 3 -19 10
-82 16 -140 26 -238 120 -747 176 -955 7 -27 29 -111 48 -185 93 -355 210
-703 349 -1035 96 -229 135 -316 231 -510 90 -182 94 -189 105 -162 16 40 13
97 -7 134 -32 59 -100 197 -141 288 -23 50 -56 118 -72 152 -55 115 -139 327
-233 583 -53 148 -201 627 -221 717 -2 10 -13 54 -24 98 -68 271 -160 757
-176 936 -3 32 -9 80 -14 106 -5 26 -9 55 -9 63 0 8 -5 79 -12 156 -14 170
-17 213 -19 282 -1 69 -18 67 -27 -4z"/>
<path d="M11080 30309 c-19 -10 -57 -23 -85 -30 -27 -6 -99 -27 -160 -45 -60
-18 -141 -40 -180 -49 -38 -8 -86 -21 -105 -27 -19 -6 -46 -13 -60 -14 -14 -1
-65 -11 -115 -22 -102 -22 -329 -61 -392 -66 -24 -2 -89 -9 -145 -15 -219 -23
-333 -28 -613 -26 -198 2 -299 7 -320 15 -18 8 -98 13 -205 15 -96 2 -188 6
-205 9 -62 12 -170 24 -177 20 -4 -3 -16 -35 -27 -72 l-21 -68 -117 -28 c-65
-16 -136 -36 -157 -44 -22 -9 -44 -17 -50 -17 -6 -1 -18 -4 -26 -8 -8 -3 -31
-10 -50 -16 -140 -39 -564 -213 -720 -295 -128 -68 -166 -89 -181 -102 -8 -8
-22 -14 -29 -14 -7 0 -27 -11 -44 -24 -17 -12 -47 -31 -66 -41 -19 -10 -72
-42 -118 -73 -81 -54 -83 -56 -102 -120 -19 -60 -27 -171 -14 -185 3 -3 38 14
77 38 40 24 73 42 75 40 2 -2 -1 -41 -7 -87 -20 -149 -4 -179 188 -348 40 -36
90 -81 110 -101 20 -19 61 -53 91 -76 30 -22 72 -56 93 -76 52 -50 123 -107
132 -107 4 0 23 -12 41 -27 72 -59 100 -80 138 -103 21 -12 54 -38 74 -56 19
-18 60 -47 90 -66 30 -18 69 -45 86 -59 17 -14 51 -36 76 -48 25 -13 66 -43
92 -67 27 -26 57 -44 70 -44 20 0 91 -40 178 -100 14 -9 53 -31 87 -47 33 -17
89 -50 124 -73 34 -23 83 -48 108 -57 49 -17 148 -69 157 -84 3 -5 14 -9 24
-9 11 0 53 -18 94 -40 41 -22 80 -40 88 -40 7 0 33 -11 58 -24 25 -13 64 -29
88 -36 23 -8 47 -19 53 -27 6 -7 20 -13 30 -13 10 0 38 -9 61 -19 54 -25 129
-51 243 -86 50 -16 100 -34 113 -42 13 -8 49 -21 80 -29 31 -8 67 -22 79 -30
13 -8 44 -17 70 -21 27 -3 60 -12 75 -19 15 -8 38 -14 52 -14 14 0 28 -5 31
-10 4 -6 22 -10 40 -8 18 1 40 -4 48 -10 8 -7 44 -17 79 -23 34 -6 82 -17 106
-25 23 -7 65 -14 92 -14 27 0 61 -5 77 -11 36 -14 191 -41 268 -46 33 -2 69
-8 80 -13 25 -11 135 -22 235 -25 41 -1 85 -7 98 -14 16 -8 32 -10 50 -3 16 5
107 5 222 -1 133 -6 216 -5 260 2 36 6 97 11 135 10 39 0 106 4 150 11 44 6
123 13 175 16 52 4 107 13 122 20 15 8 47 14 71 14 67 0 93 37 122 175 18 86
19 175 2 198 -11 16 -16 16 -62 3 -27 -9 -59 -13 -71 -10 -12 3 -51 -2 -86
-11 -34 -9 -99 -18 -143 -20 -123 -6 -200 -14 -246 -24 -27 -6 -62 -6 -96 0
-29 6 -58 7 -63 4 -15 -10 -397 -8 -412 1 -7 5 -49 10 -93 11 -44 1 -100 4
-125 7 -25 3 -83 7 -130 9 -47 2 -110 9 -140 15 -81 16 -187 33 -255 41 -33 4
-75 15 -94 25 -18 10 -56 19 -85 21 -28 1 -68 10 -90 19 -21 9 -55 16 -75 16
-20 0 -45 7 -55 15 -11 8 -29 15 -40 15 -21 0 -41 5 -146 39 -36 12 -74 21
-85 21 -11 0 -47 8 -80 19 -33 11 -94 29 -135 42 -41 12 -107 37 -145 55 -39
18 -100 42 -137 54 -37 12 -72 28 -79 36 -6 8 -19 14 -29 14 -18 0 -93 31
-195 80 -68 33 -120 55 -151 64 -12 4 -29 15 -39 26 -10 11 -26 20 -36 20 -10
0 -21 5 -24 10 -3 6 -14 10 -23 10 -10 0 -42 16 -71 35 -29 20 -99 58 -155 85
-55 28 -130 68 -166 90 -36 22 -78 47 -95 55 -70 36 -86 48 -101 70 -8 13 -38
32 -65 41 -28 10 -73 38 -101 61 -27 24 -56 43 -64 43 -8 0 -31 15 -51 33 -35
31 -147 107 -158 107 -3 0 -39 28 -81 63 -42 34 -91 72 -110 85 -19 12 -34 26
-34 31 0 8 -71 64 -130 102 -14 9 -63 51 -110 93 -47 42 -112 100 -145 129
-86 75 -145 139 -145 158 0 21 10 29 100 78 181 98 390 196 545 256 131 50
142 55 197 79 20 9 43 16 53 16 9 0 28 6 43 14 15 7 52 19 82 26 30 6 87 22
125 35 39 13 102 31 140 39 39 9 84 20 100 25 17 5 62 15 100 21 39 7 78 20
88 29 23 19 161 21 457 6 325 -17 745 -4 990 30 19 2 87 12 150 20 194 27 470
88 725 162 28 8 96 32 153 54 56 21 110 39 120 39 42 0 77 63 91 164 16 115
-1 136 -79 95z"/>
<path d="M11020 25768 c-27 -45 -50 -154 -50 -241 0 -60 4 -79 21 -101 11 -14
26 -26 33 -26 7 0 30 -17 52 -37 50 -48 84 -71 170 -118 38 -21 80 -46 93 -56
13 -11 28 -19 33 -19 5 0 32 -18 61 -39 29 -22 64 -42 79 -46 14 -4 34 -15 44
-26 9 -10 23 -19 29 -19 7 0 29 -11 49 -25 20 -14 41 -25 46 -25 5 0 31 -13
57 -30 26 -16 53 -30 61 -30 8 0 31 -13 52 -30 21 -16 44 -30 52 -30 7 0 22
-6 33 -14 11 -7 31 -17 44 -21 14 -4 46 -21 72 -36 25 -16 53 -29 62 -29 9 0
54 -20 100 -44 46 -24 99 -46 118 -50 33 -6 96 -34 122 -54 7 -5 35 -15 62
-22 28 -7 60 -19 72 -26 12 -8 34 -14 48 -14 14 0 33 -9 42 -20 10 -11 25 -20
35 -20 24 0 107 -27 141 -46 16 -9 61 -20 100 -25 66 -8 94 -16 185 -55 18 -8
46 -14 62 -14 16 0 53 -9 82 -19 60 -21 106 -34 128 -36 8 0 40 -8 70 -17 30
-9 84 -19 120 -23 35 -4 72 -11 82 -16 11 -6 42 -12 71 -14 106 -9 147 -14
204 -24 81 -14 201 -17 213 -5 12 12 50 121 50 143 1 41 13 44 177 48 87 2
181 5 208 8 28 3 90 7 139 10 78 4 273 28 338 41 13 2 37 6 53 9 70 11 103 17
160 30 33 8 74 16 92 19 17 2 37 7 43 11 6 4 25 8 43 10 43 5 238 56 362 95
55 17 107 33 116 35 30 6 113 36 124 44 5 4 28 13 50 20 45 14 43 13 180 71
55 23 118 49 139 58 46 19 292 143 381 191 33 18 71 44 86 57 14 13 28 24 32
24 4 0 39 21 78 48 38 26 98 65 133 87 142 90 172 114 186 149 10 28 14 106 5
106 -10 0 -57 -32 -135 -90 -41 -31 -111 -76 -155 -100 -44 -24 -84 -49 -88
-57 -4 -7 -17 -13 -28 -13 -11 0 -51 -17 -87 -39 -113 -65 -405 -208 -512
-251 -30 -12 -68 -27 -85 -35 -59 -25 -138 -55 -147 -55 -6 0 -24 -6 -41 -14
-77 -34 -369 -123 -482 -147 -33 -7 -67 -16 -77 -20 -9 -5 -38 -11 -64 -14
-26 -4 -52 -9 -58 -12 -5 -4 -46 -12 -90 -20 -45 -8 -90 -15 -101 -17 -89 -16
-176 -28 -256 -37 -152 -15 -173 -18 -194 -23 -11 -3 -92 -8 -180 -11 -88 -3
-188 -8 -223 -10 -35 -2 -76 1 -90 6 -27 11 -40 13 -167 23 -104 9 -227 27
-250 36 -11 5 -49 11 -85 14 -36 3 -94 14 -129 25 -35 12 -80 21 -100 21 -20
0 -41 4 -47 9 -5 4 -45 14 -89 21 -44 7 -91 17 -105 22 -41 16 -130 38 -151
38 -21 0 -25 2 -106 43 -28 15 -75 32 -104 37 -29 6 -74 20 -98 32 -25 12 -56
21 -70 20 -13 -1 -38 7 -56 18 -18 11 -38 20 -44 20 -7 0 -36 11 -64 24 -29
13 -78 32 -109 41 -32 9 -68 24 -80 34 -22 16 -107 52 -158 67 -14 4 -38 17
-53 30 -16 13 -36 24 -44 24 -20 0 -142 58 -168 80 -11 10 -35 20 -54 24 -19
3 -42 13 -50 20 -9 8 -38 26 -66 41 -27 14 -72 39 -100 55 -27 17 -61 35 -74
40 -13 6 -37 22 -53 35 -16 14 -35 25 -41 25 -7 0 -35 15 -62 33 -28 17 -61
38 -75 44 -14 7 -50 31 -80 53 -105 77 -137 97 -163 104 -15 3 -40 20 -57 36
-39 38 -56 38 -80 -2z"/>
<path d="M13939 23938 c-18 -24 -51 -64 -73 -89 -23 -25 -86 -99 -141 -165
-55 -65 -131 -152 -170 -194 -38 -42 -105 -117 -149 -166 -204 -231 -629 -653
-881 -874 -59 -52 -120 -106 -134 -121 -50 -49 -216 -195 -256 -224 -21 -16
-46 -36 -55 -45 -9 -8 -44 -37 -79 -65 -34 -27 -118 -96 -186 -152 -68 -57
-127 -103 -131 -103 -4 0 -20 -12 -35 -26 -15 -14 -47 -40 -73 -57 -25 -18
-80 -59 -123 -93 -43 -33 -89 -67 -103 -74 -14 -7 -40 -26 -57 -41 -18 -15
-48 -32 -68 -38 -20 -5 -79 -41 -133 -78 -53 -38 -124 -86 -157 -106 -33 -21
-78 -50 -100 -66 -114 -83 -520 -338 -685 -431 -36 -20 -92 -53 -125 -73 -33
-20 -69 -37 -79 -37 -11 0 -40 -13 -65 -29 -71 -44 -367 -200 -588 -310 -263
-131 -534 -251 -963 -426 -19 -8 -72 -28 -117 -45 -45 -17 -93 -40 -106 -51
-26 -20 -145 -66 -254 -99 -34 -10 -68 -22 -74 -26 -7 -4 -29 -11 -48 -15 -20
-4 -61 -17 -91 -29 -30 -12 -79 -26 -107 -31 -29 -5 -75 -18 -102 -29 -59 -23
-203 -61 -246 -65 -16 -2 -61 -13 -100 -25 -133 -40 -316 -84 -425 -100 -36
-6 -72 -13 -80 -16 -8 -3 -44 -10 -80 -15 -36 -4 -92 -13 -125 -19 -33 -6 -98
-15 -145 -20 -47 -5 -116 -14 -155 -20 -38 -6 -101 -13 -140 -15 -38 -3 -108
-7 -155 -11 -141 -10 -305 -14 -490 -12 -96 1 -209 2 -250 2 l-75 1 -22 -46
c-19 -40 -38 -119 -58 -242 -5 -32 -12 -41 -43 -54 -20 -8 -55 -27 -77 -42
-22 -15 -53 -32 -68 -39 -16 -7 -66 -37 -112 -67 -46 -30 -86 -55 -90 -55 -6
0 -48 -27 -185 -120 -21 -14 -55 -38 -78 -55 -22 -16 -53 -38 -68 -47 -16 -10
-63 -43 -104 -73 -41 -30 -93 -67 -115 -82 -22 -15 -78 -59 -125 -98 -47 -39
-111 -90 -143 -114 -31 -23 -90 -71 -130 -107 -39 -36 -85 -73 -102 -81 -44
-23 -264 -233 -464 -443 -314 -330 -579 -661 -830 -1038 -294 -442 -471 -761
-655 -1187 -48 -110 -109 -245 -136 -300 -58 -118 -73 -158 -100 -270 -11 -47
-48 -178 -84 -292 -300 -969 -437 -2127 -366 -3098 87 -1190 403 -2281 955
-3295 63 -116 188 -329 239 -410 13 -19 37 -57 54 -85 17 -27 40 -63 52 -80
11 -16 41 -61 67 -100 79 -119 300 -415 373 -501 25 -29 57 -69 72 -89 76
-104 412 -470 583 -635 60 -58 129 -127 154 -154 25 -27 102 -96 171 -154 69
-59 159 -136 200 -172 79 -69 103 -88 264 -210 54 -41 119 -91 144 -110 81
-62 146 -108 182 -128 19 -11 44 -29 54 -41 11 -12 25 -21 31 -21 7 0 48 -25
91 -56 43 -31 85 -59 94 -62 18 -7 110 -63 167 -103 23 -16 45 -29 50 -29 4 0
39 -20 78 -45 38 -25 74 -45 81 -45 6 0 39 -18 73 -40 34 -22 65 -40 70 -40 5
0 19 -8 32 -19 13 -10 46 -26 73 -35 27 -9 62 -28 78 -41 16 -14 36 -25 44
-25 7 0 83 -34 167 -75 85 -41 160 -75 168 -75 8 0 25 -9 39 -20 14 -11 33
-20 43 -20 10 0 69 -22 131 -50 62 -27 121 -50 132 -50 10 0 37 -12 59 -25 22
-14 51 -25 65 -25 14 0 36 -7 48 -16 21 -14 223 -84 244 -84 6 0 24 -6 41 -14
37 -15 230 -75 267 -82 24 -5 86 -22 220 -63 36 -11 81 -22 100 -26 55 -9 124
-27 135 -35 6 -4 51 -13 100 -20 50 -7 106 -16 125 -21 19 -5 51 -9 71 -9 19
0 40 -5 46 -11 6 -6 33 -13 60 -15 26 -3 62 -9 79 -14 31 -11 144 -25 459 -59
94 -11 181 -21 195 -25 69 -15 694 -26 1025 -17 205 6 775 65 970 101 28 5 82
14 120 21 39 6 80 13 93 15 32 6 58 55 82 155 19 83 27 210 14 243 -8 20 -27
20 -82 1 -24 -9 -65 -18 -90 -20 -51 -5 -107 -13 -312 -45 -145 -22 -407 -47
-585 -56 -60 -3 -113 -8 -118 -11 -5 -3 -147 -4 -315 -3 -169 2 -325 3 -347 3
-63 0 -415 26 -580 43 -82 9 -166 18 -185 19 -53 6 -153 22 -170 29 -15 6
-161 26 -230 31 -32 3 -67 10 -235 51 -33 8 -86 19 -118 24 -33 6 -84 18 -115
26 -32 9 -75 20 -97 24 -47 8 -184 47 -235 65 -19 7 -79 25 -133 40 -54 16
-100 32 -103 36 -3 5 -17 9 -32 9 -15 0 -40 7 -56 15 -15 8 -33 15 -40 15 -6
0 -44 14 -85 30 -40 17 -81 30 -92 30 -10 0 -39 11 -65 25 -26 14 -56 25 -68
25 -11 0 -43 11 -71 25 -27 13 -77 34 -110 45 -33 12 -87 34 -120 50 -95 45
-375 170 -380 170 -2 0 -26 13 -52 30 -26 16 -53 30 -61 30 -7 0 -32 13 -55
28 -23 16 -81 48 -129 71 -49 23 -111 58 -139 77 -28 19 -55 34 -61 34 -5 0
-33 15 -61 34 -29 18 -78 48 -110 67 -98 57 -125 74 -144 90 -10 8 -40 26 -66
40 -26 13 -68 41 -94 61 -25 21 -49 38 -53 38 -5 0 -26 15 -49 33 -22 17 -64
48 -92 67 -28 19 -65 47 -83 61 -17 14 -43 32 -58 40 -15 8 -60 42 -100 76
-40 34 -141 118 -223 186 -83 69 -189 160 -235 204 -47 44 -96 88 -110 98 -37
29 -487 483 -529 535 -19 25 -65 79 -101 120 -36 41 -83 96 -103 122 -21 26
-50 60 -65 75 -15 15 -49 57 -75 93 -26 36 -62 83 -80 106 -97 124 -161 211
-232 318 -107 159 -131 195 -155 236 -11 19 -33 54 -48 77 -34 54 -145 241
-208 353 -76 135 -199 382 -270 545 -37 83 -81 184 -99 225 -129 292 -280 750
-379 1145 -102 409 -162 770 -208 1260 -20 218 -17 1000 5 1230 57 579 170
1111 341 1599 106 301 159 417 261 576 290 451 453 680 717 1008 46 56 98 122
116 145 69 89 118 147 246 287 72 80 149 165 170 190 160 184 687 716 826 833
25 21 88 78 140 127 142 131 210 192 255 225 22 16 60 48 85 71 25 23 72 63
105 88 85 67 166 133 233 190 65 55 144 115 217 165 28 18 70 52 95 76 25 23
63 53 85 66 22 13 78 52 123 86 95 71 155 108 193 117 14 3 84 -2 155 -10 71
-9 154 -18 184 -20 30 -3 62 -8 70 -12 19 -8 151 -16 220 -13 14 0 97 -2 184
-5 98 -3 170 -1 188 5 19 7 36 7 47 1 11 -5 32 -5 57 2 21 6 57 12 79 13 22 2
83 6 135 10 52 4 120 9 150 11 30 2 78 9 105 15 28 6 66 12 85 13 19 2 49 9
65 16 17 6 64 16 105 21 105 13 111 14 150 26 19 6 62 16 95 23 33 6 96 22
140 35 44 13 100 28 125 33 85 20 166 47 193 65 14 9 39 17 54 17 15 1 53 10
83 21 30 11 78 27 107 35 28 8 82 28 118 44 37 17 74 30 83 30 10 0 32 9 50
20 18 11 37 20 43 20 6 0 25 6 42 14 18 8 63 24 101 35 37 12 88 34 113 51 24
16 51 30 59 30 8 0 65 24 127 53 62 30 145 67 186 83 41 15 92 40 115 54 23
14 79 43 126 64 47 21 129 65 182 97 53 32 120 67 147 78 27 10 81 39 119 65
39 25 85 52 103 60 19 8 53 28 76 45 24 17 47 31 52 31 5 0 37 19 72 42 35 24
76 50 91 58 14 8 52 32 82 53 31 20 60 37 65 37 5 0 36 20 69 45 33 25 64 45
70 45 6 0 32 18 57 40 25 22 49 40 53 40 4 0 37 21 74 48 37 26 86 59 110 74
24 16 73 52 110 80 37 29 115 88 175 131 108 78 158 116 243 182 25 19 65 50
90 69 64 50 154 123 219 179 31 27 72 57 91 67 19 10 40 27 47 38 7 11 52 53
100 94 106 88 345 302 468 419 50 47 140 132 200 190 61 57 173 171 250 253
77 83 172 182 210 220 98 99 386 422 468 525 38 47 88 106 111 131 59 62 157
186 202 256 21 33 66 91 100 129 34 39 90 105 125 148 35 43 81 99 102 125
141 172 162 222 168 396 3 75 0 110 -7 113 -7 2 -27 -15 -45 -39z"/>
<path d="M20590 17533 c-418 -371 -789 -805 -1100 -1285 l-95 -147 -57 0 -56
-1 -80 -163 c-159 -322 -268 -596 -416 -1043 -180 -545 -264 -908 -311 -1354
-32 -302 -29 -838 6 -939 15 -44 39 -37 67 21 33 66 59 205 76 413 17 194 62
442 95 515 11 25 47 137 80 250 108 369 199 620 347 965 75 174 235 495 295
593 23 37 87 141 142 232 122 202 227 357 380 560 189 252 217 285 500 593 67
72 126 146 136 170 26 60 49 168 56 267 4 47 15 128 26 182 22 112 25 221 6
236 -9 8 -34 -8 -97 -65z"/>
<path d="M7322 15390 c-32 -13 -58 -78 -77 -189 -28 -162 -15 -185 165 -288
58 -33 148 -88 200 -122 52 -33 124 -77 160 -98 36 -20 88 -55 117 -77 29 -23
78 -60 110 -84 32 -23 104 -77 161 -120 56 -42 115 -86 130 -97 91 -66 243
-196 362 -309 30 -29 102 -95 160 -147 57 -51 118 -109 135 -128 16 -19 68
-71 114 -115 46 -45 91 -89 100 -100 9 -10 48 -55 86 -100 39 -44 95 -106 125
-138 62 -63 62 -63 180 -205 47 -56 99 -120 115 -144 38 -54 95 -122 145 -175
21 -23 53 -67 70 -98 18 -31 38 -59 45 -64 6 -4 24 -25 39 -47 14 -22 61 -92
105 -155 43 -63 101 -150 127 -193 27 -43 84 -132 127 -198 43 -66 85 -135 92
-154 8 -18 19 -36 24 -39 5 -4 44 -70 87 -149 42 -78 90 -167 107 -197 184
-335 382 -818 502 -1225 171 -578 243 -1059 260 -1745 4 -129 9 -243 11 -252
14 -49 47 7 75 130 61 266 17 1039 -91 1604 -11 56 -25 146 -30 198 -24 229
-239 884 -435 1326 -163 368 -317 669 -440 859 -18 28 -60 100 -95 160 -34 61
-74 125 -88 144 -27 37 -38 52 -176 256 -49 72 -108 151 -132 177 -24 26 -44
51 -44 56 0 4 -9 17 -19 29 -11 11 -28 38 -40 60 -11 22 -30 47 -43 55 -13 9
-62 64 -108 124 -95 119 -88 112 -185 216 -38 41 -97 105 -130 143 -67 76
-124 134 -297 298 -221 210 -293 276 -383 352 -49 41 -92 80 -93 85 -2 6 -27
25 -55 44 -29 18 -77 55 -107 83 -61 55 -219 176 -253 195 -12 6 -44 30 -72
53 -27 23 -63 49 -80 58 -16 8 -41 27 -54 41 -14 14 -29 26 -35 26 -10 0 -58
31 -181 116 -65 46 -193 125 -235 146 -14 7 -50 28 -80 47 -49 31 -146 82
-152 80 -2 0 -13 -4 -26 -9z"/>
<path d="M17940 10868 c-98 -219 -240 -785 -299 -1193 -45 -310 -55 -475 -55
-845 0 -294 4 -390 22 -560 32 -304 59 -494 76 -531 9 -19 29 -95 47 -169 90
-393 224 -752 449 -1205 132 -266 200 -415 277 -605 48 -118 51 -120 88 -76
l30 35 110 -146 c61 -81 116 -157 123 -170 12 -22 11 -23 -14 -23 -28 0 -59 8
-154 42 -30 10 -91 30 -135 44 -44 14 -120 39 -170 55 -159 53 -249 79 -276
79 -14 0 -30 5 -36 11 -6 6 -62 24 -125 40 -62 16 -138 36 -168 45 -30 9 -89
24 -130 34 -41 10 -92 24 -114 30 -21 6 -59 15 -85 20 -25 5 -91 20 -146 33
-117 28 -223 50 -355 73 -52 9 -140 24 -195 34 -55 11 -122 22 -150 25 -27 4
-84 13 -125 21 -98 18 -561 69 -810 89 -332 27 -812 32 -1175 14 -337 -16
-331 -16 -440 -29 -310 -36 -495 -64 -526 -80 -10 -6 -31 -10 -48 -10 -17 0
-48 -6 -68 -14 -21 -7 -72 -21 -113 -30 -85 -18 -236 -59 -325 -87 -33 -11
-96 -31 -140 -44 -44 -14 -93 -31 -110 -39 -16 -8 -73 -30 -125 -49 -52 -20
-108 -42 -125 -51 -16 -9 -34 -16 -38 -16 -5 0 -54 -22 -109 -50 -55 -27 -105
-50 -112 -50 -6 0 -40 -20 -75 -45 -36 -25 -69 -45 -74 -45 -19 0 -77 -51 -92
-80 -46 -89 -74 -343 -39 -357 8 -3 25 0 37 6 179 99 396 209 502 254 95 41
191 77 203 77 6 0 46 13 89 29 171 63 464 146 633 180 325 65 483 86 935 122
221 18 851 17 1075 -1 63 -5 187 -14 275 -20 161 -11 176 -13 340 -30 103 -11
289 -35 420 -55 50 -8 124 -19 165 -26 73 -11 109 -17 220 -39 96 -19 253 -52
320 -67 36 -9 97 -21 135 -29 75 -14 203 -45 300 -74 33 -10 87 -23 120 -29
58 -12 139 -35 238 -67 26 -9 51 -14 54 -11 3 4 17 0 32 -7 28 -15 132 -46
246 -76 39 -10 120 -34 180 -55 61 -20 133 -44 160 -52 28 -9 55 -19 60 -23 6
-4 37 -15 69 -25 32 -10 75 -27 95 -37 19 -10 47 -18 61 -18 14 0 31 -5 36
-10 6 -6 20 -12 31 -14 11 -3 50 -16 85 -30 36 -14 70 -26 76 -26 11 0 104
-39 152 -65 14 -7 55 -24 90 -36 66 -23 210 -90 265 -123 38 -24 259 -168 345
-226 142 -96 132 -91 152 -74 9 9 20 25 23 35 12 36 38 40 91 12 27 -14 56
-32 65 -39 8 -8 26 -14 38 -14 13 0 36 -9 51 -20 16 -11 66 -38 112 -60 45
-22 90 -44 98 -49 8 -4 29 -16 45 -25 17 -9 46 -24 65 -33 19 -8 64 -32 100
-53 129 -75 172 -98 220 -119 14 -6 52 -29 85 -51 99 -65 221 -130 244 -130
12 0 34 -8 49 -18 80 -55 110 -72 124 -72 9 0 23 -9 31 -20 7 -10 24 -24 38
-30 34 -15 87 -49 149 -95 56 -41 90 -62 155 -93 22 -11 51 -31 64 -46 14 -14
30 -26 36 -26 6 0 22 -11 34 -24 13 -13 37 -27 55 -30 20 -4 38 -15 45 -29 6
-12 23 -29 36 -37 109 -69 242 -166 360 -263 22 -19 62 -44 89 -58 26 -13 57
-35 68 -48 10 -14 35 -34 54 -46 20 -12 61 -45 92 -73 124 -112 159 -142 167
-142 4 0 15 -11 26 -24 10 -13 31 -29 47 -35 23 -10 62 -64 62 -86 0 -12 -49
-3 -60 10 -7 8 -18 15 -25 15 -8 0 -26 10 -42 23 -15 13 -48 34 -73 47 -25 12
-52 26 -60 31 -8 5 -62 33 -120 62 -58 30 -130 66 -160 82 -96 49 -120 61
-190 93 -25 11 -78 36 -119 56 -40 20 -81 36 -90 36 -9 0 -21 4 -26 9 -9 8
-64 32 -190 83 -27 12 -63 27 -80 34 -88 38 -136 54 -158 54 -13 0 -51 14 -83
32 -32 17 -72 34 -89 39 -16 4 -59 18 -95 31 -36 13 -92 30 -125 37 -33 7 -89
24 -125 37 -74 27 -173 54 -198 54 -9 0 -30 7 -46 15 -15 8 -37 15 -48 15 -11
0 -27 4 -37 10 -23 12 -168 45 -286 66 -49 8 -103 21 -120 28 -51 23 -97 35
-160 41 -33 4 -85 13 -115 21 -49 13 -185 37 -280 51 -19 3 -39 9 -45 13 -5 4
-29 8 -53 8 -23 1 -51 4 -62 7 -21 7 -197 31 -330 45 -47 5 -114 14 -150 20
-36 5 -133 16 -216 23 -83 8 -155 16 -161 20 -5 3 -122 8 -259 12 -137 3 -285
9 -329 13 -87 9 -645 7 -840 -2 -66 -4 -171 -11 -233 -17 -61 -6 -121 -8 -132
-4 -10 3 -36 1 -57 -4 -41 -12 -343 -41 -421 -41 -26 0 -67 -7 -90 -15 -24 -9
-84 -17 -133 -20 -49 -2 -93 -7 -98 -9 -5 -3 -28 -7 -52 -10 -96 -9 -155 -19
-181 -32 -15 -8 -42 -14 -60 -14 -18 0 -67 -7 -108 -15 -41 -9 -102 -19 -136
-24 -34 -5 -70 -13 -80 -19 -10 -5 -41 -13 -69 -17 -58 -7 -214 -41 -265 -58
-19 -6 -53 -14 -75 -18 -43 -8 -211 -53 -260 -71 -16 -5 -48 -14 -70 -18 -53
-11 -183 -52 -308 -97 -20 -7 -46 -13 -56 -13 -11 0 -36 -8 -58 -19 -76 -37
-114 -51 -156 -57 -23 -3 -58 -17 -77 -30 -19 -12 -48 -26 -65 -29 -16 -4 -62
-20 -102 -36 -39 -16 -77 -29 -83 -29 -6 0 -35 -11 -63 -24 -29 -13 -72 -30
-97 -39 -25 -8 -59 -21 -77 -28 -18 -7 -35 -10 -39 -7 -3 4 -1 38 5 77 13 84
14 151 2 170 -7 11 -24 2 -80 -45 -82 -68 -133 -108 -216 -171 -33 -24 -93
-70 -134 -101 -40 -31 -99 -72 -130 -90 -31 -18 -69 -46 -86 -61 -16 -15 -70
-49 -120 -76 -49 -26 -97 -53 -105 -61 -9 -7 -84 -47 -167 -88 -82 -41 -174
-90 -204 -109 -30 -18 -90 -48 -134 -66 -44 -18 -105 -44 -135 -58 -120 -54
-136 -61 -155 -66 -11 -3 -92 -33 -180 -67 -177 -68 -234 -88 -345 -120 -41
-12 -97 -30 -125 -40 -27 -10 -72 -23 -100 -30 -49 -11 -105 -27 -251 -69 -39
-12 -85 -21 -102 -21 -17 0 -41 -4 -54 -9 -68 -27 -207 -56 -341 -70 -42 -5
-83 -14 -90 -19 -7 -6 -46 -15 -87 -21 -41 -6 -133 -19 -205 -29 -71 -11 -188
-25 -260 -31 -71 -6 -164 -16 -205 -21 -41 -5 -138 -12 -215 -15 -77 -3 -180
-8 -230 -12 -49 -4 -165 -7 -256 -7 -119 -1 -170 -5 -181 -14 -12 -9 -22 -10
-44 -1 -16 6 -60 9 -99 8 -38 -2 -96 3 -127 10 -31 6 -85 11 -120 10 -35 -2
-101 3 -148 10 -47 8 -105 15 -130 16 -103 6 -162 16 -191 31 -23 11 -44 14
-79 9 -36 -5 -60 -2 -96 13 -27 11 -96 25 -154 31 -58 7 -127 18 -155 26 -27
8 -66 19 -85 24 -19 5 -71 15 -115 21 -84 11 -182 36 -202 52 -6 5 -35 13 -65
19 -29 5 -66 13 -83 16 -16 3 -37 11 -45 17 -14 11 -70 30 -170 56 -25 7 -83
26 -130 42 -47 17 -105 34 -129 39 -25 5 -54 15 -65 22 -12 7 -41 19 -66 27
-25 7 -49 17 -55 22 -5 4 -16 8 -25 8 -8 1 -33 9 -55 20 -22 11 -47 20 -55 20
-8 0 -24 7 -34 15 -11 8 -29 15 -40 15 -12 0 -45 14 -75 30 -30 17 -60 30 -67
30 -7 0 -25 6 -41 14 -42 21 -137 56 -151 56 -7 0 -37 15 -66 34 -58 37 -157
86 -173 86 -6 0 -23 10 -38 22 -32 25 -61 42 -150 87 -33 17 -96 51 -140 76
-44 25 -100 54 -124 66 -25 12 -54 30 -65 40 -11 11 -26 19 -34 19 -20 0 -79
37 -125 77 -20 18 -44 33 -52 33 -9 0 -49 23 -90 50 -41 28 -79 50 -84 50 -6
0 -15 8 -20 18 -6 11 -38 36 -71 58 -34 21 -75 51 -92 66 -16 15 -35 25 -41
22 -7 -2 -39 21 -71 52 -32 30 -82 69 -111 85 -28 16 -62 40 -75 54 -13 14
-28 25 -35 25 -6 0 -22 12 -37 27 -14 16 -45 42 -68 58 -23 17 -70 55 -104 86
-33 31 -74 65 -91 76 -38 24 -108 86 -206 183 -42 41 -94 91 -115 112 -21 20
-46 44 -55 55 -8 10 -46 47 -85 83 -82 78 -214 227 -214 243 0 9 113 -2 150
-14 19 -6 55 -20 80 -30 61 -24 119 -42 154 -46 16 -1 44 -12 62 -22 31 -19
54 -25 82 -22 35 3 90 232 77 318 -7 50 -28 63 -97 63 -22 0 -52 7 -66 15 -15
7 -63 26 -107 41 -44 14 -89 32 -100 40 -11 8 -27 14 -36 14 -9 0 -24 10 -35
21 -10 12 -64 44 -119 71 -96 47 -139 73 -196 117 -15 11 -39 25 -54 31 -93
35 -316 227 -460 395 -27 32 -66 77 -85 99 -55 65 -92 116 -134 186 -21 36
-49 76 -61 90 -13 14 -26 36 -30 50 -4 14 -28 72 -53 130 -151 351 -234 654
-282 1042 -6 48 -13 95 -16 103 -26 67 -86 -98 -103 -282 -15 -162 21 -469 81
-698 16 -57 22 -112 22 -195 1 -84 6 -123 17 -145 9 -16 23 -43 32 -60 9 -16
30 -59 46 -95 55 -115 114 -215 276 -463 44 -67 86 -135 93 -150 13 -30 72
-110 85 -115 4 -2 25 -34 48 -70 22 -37 67 -101 100 -142 32 -41 84 -109 115
-150 32 -41 74 -93 94 -115 21 -22 50 -59 64 -83 14 -23 30 -42 35 -42 5 0 39
-35 75 -78 125 -145 181 -207 281 -307 55 -55 124 -126 153 -158 30 -31 59
-57 67 -57 7 0 21 -12 30 -27 20 -31 115 -123 128 -123 4 0 37 -28 72 -63 117
-114 192 -180 223 -196 16 -9 43 -28 59 -44 57 -55 95 -87 104 -87 5 0 21 -13
36 -30 14 -16 30 -30 36 -30 5 0 38 -27 74 -59 36 -32 89 -71 118 -85 29 -15
57 -38 63 -51 7 -14 19 -25 28 -25 9 0 34 -16 56 -35 22 -19 64 -47 93 -62 66
-36 190 -118 233 -155 18 -15 40 -28 50 -28 9 0 39 -15 66 -33 27 -17 67 -44
90 -59 23 -15 69 -41 104 -59 34 -17 64 -35 67 -40 3 -4 43 -26 88 -49 45 -22
89 -44 97 -48 65 -36 102 -52 119 -52 11 0 23 -5 27 -11 8 -13 131 -71 199
-94 28 -10 57 -23 65 -30 8 -7 44 -27 80 -44 36 -18 81 -41 100 -51 19 -9 51
-21 70 -25 19 -4 46 -14 59 -22 13 -8 35 -19 50 -23 14 -5 85 -31 156 -59 72
-28 138 -51 149 -51 10 0 33 -8 50 -19 17 -10 54 -24 81 -31 28 -7 54 -17 60
-21 5 -5 18 -9 28 -9 10 0 31 -6 45 -14 45 -22 95 -38 137 -43 22 -3 45 -10
52 -15 7 -5 21 -7 32 -3 11 3 28 2 38 -3 46 -23 125 -45 193 -53 41 -5 86 -15
99 -22 13 -6 29 -12 35 -12 6 -1 18 -4 26 -7 34 -13 97 -30 125 -33 71 -9 158
-25 167 -31 21 -13 145 -36 209 -39 39 -2 84 -11 110 -23 27 -12 51 -17 64
-13 11 4 61 1 110 -6 180 -27 350 -45 475 -50 52 -2 111 -6 130 -8 19 -3 61
-5 92 -6 46 0 60 -4 68 -18 9 -18 25 -18 260 -15 251 3 625 19 690 30 19 3 80
10 135 15 238 22 266 26 460 64 39 7 88 13 111 13 37 -1 165 27 250 53 17 5
48 9 70 9 21 1 50 7 64 15 14 8 37 14 51 15 23 0 207 45 349 84 30 9 84 22
120 30 36 8 93 26 127 41 35 14 69 25 77 25 8 0 36 9 63 21 26 11 95 34 153
51 57 16 109 33 115 37 5 5 35 16 65 26 30 10 60 21 65 25 6 4 28 13 50 20 22
7 49 18 60 24 11 7 40 18 65 25 25 7 73 29 107 48 48 26 67 32 80 25 13 -8 36
-1 95 30 93 47 124 49 86 3 -14 -16 -62 -81 -107 -143 -65 -92 -86 -129 -106
-195 -41 -135 -52 -297 -20 -297 6 0 34 33 60 73 99 148 285 356 447 499 134
117 182 156 233 189 22 14 61 44 86 66 26 22 80 59 120 81 70 40 116 67 170
103 70 46 149 89 162 89 9 0 19 5 22 10 6 9 136 74 350 175 28 13 88 41 135
63 47 22 119 52 160 66 77 26 182 64 235 86 17 7 73 25 126 40 53 15 106 33
118 40 28 15 125 40 154 40 13 0 32 6 43 14 11 8 52 22 90 31 38 9 92 23 119
31 45 12 186 48 360 90 33 8 77 16 98 19 21 2 43 7 48 11 24 14 303 61 584 98
110 15 220 31 245 36 69 15 294 41 396 45 50 2 113 9 138 15 26 6 51 8 55 5 5
-2 71 0 147 6 127 10 173 12 214 10 8 -1 69 1 135 4 131 5 395 6 545 1 52 -2
113 0 136 5 23 5 55 4 75 -1 19 -5 82 -11 140 -13 58 -2 111 -7 117 -10 5 -4
75 -9 154 -11 78 -2 181 -9 228 -15 47 -6 144 -16 215 -21 161 -13 265 -25
330 -39 107 -22 223 -41 279 -46 32 -3 86 -11 120 -20 33 -8 90 -19 126 -25
76 -12 187 -38 215 -51 11 -4 47 -10 80 -12 33 -2 105 -16 160 -31 55 -15 116
-31 135 -36 19 -5 67 -18 105 -30 39 -12 90 -25 115 -30 25 -4 60 -13 78 -19
76 -26 101 -33 167 -51 39 -10 122 -37 185 -60 63 -23 147 -51 185 -62 39 -11
98 -33 132 -49 34 -16 70 -29 80 -29 10 0 35 -9 56 -20 20 -11 44 -20 52 -20
13 0 66 -20 108 -41 9 -5 50 -22 90 -38 39 -16 92 -41 117 -55 25 -14 53 -26
64 -26 10 0 35 -9 55 -19 79 -42 309 -151 318 -151 6 0 21 -9 35 -19 13 -11
60 -38 104 -61 43 -23 86 -48 94 -55 35 -29 61 -37 89 -25 24 9 36 6 97 -24
39 -19 76 -42 83 -50 8 -9 20 -16 28 -16 8 0 29 -11 47 -25 18 -14 40 -25 49
-25 8 0 23 -7 32 -17 9 -9 42 -29 73 -45 32 -16 66 -34 77 -41 38 -23 140 -82
168 -97 45 -25 226 -139 317 -200 47 -31 103 -66 125 -78 22 -11 60 -38 85
-59 25 -22 74 -57 110 -78 36 -21 75 -47 88 -59 18 -16 27 -18 40 -10 38 24
86 246 69 317 -4 14 -31 43 -64 68 -70 53 -80 65 -92 106 -11 40 -80 129 -161
208 -34 33 -70 75 -81 93 -12 17 -24 32 -29 32 -8 0 -113 102 -206 201 -28 30
-95 95 -150 144 -54 50 -108 101 -119 113 -11 13 -33 36 -50 50 -16 15 -43 41
-60 58 -16 17 -41 37 -55 44 -13 7 -49 39 -79 72 -30 32 -61 58 -70 58 -9 0
-29 18 -45 40 -17 22 -35 40 -42 40 -7 0 -20 10 -29 23 -17 24 -63 61 -166
132 -36 25 -80 61 -99 80 -19 19 -40 35 -47 35 -8 0 -42 26 -78 57 -82 74
-111 97 -215 168 -47 32 -106 75 -131 96 -26 22 -51 39 -56 39 -6 0 -18 9 -28
20 -10 11 -28 20 -41 20 -15 0 -33 13 -50 35 -15 19 -37 38 -50 41 -13 3 -29
13 -35 21 -7 8 -27 20 -44 27 -17 8 -47 28 -67 45 -20 17 -39 31 -44 31 -4 0
-18 9 -30 21 -12 11 -46 33 -76 48 -66 33 -140 82 -151 98 -4 7 -16 13 -26 13
-10 0 -31 10 -47 23 -36 29 -93 64 -124 77 -14 6 -34 23 -44 39 -22 32 -77 66
-275 168 -25 13 -52 29 -60 37 -9 8 -79 46 -156 85 -77 39 -151 77 -165 85
-14 7 -36 19 -50 25 -14 6 -32 15 -40 19 -8 5 -31 17 -50 26 -19 10 -59 31
-89 47 -30 16 -61 29 -71 29 -9 0 -24 8 -34 18 -9 11 -49 32 -89 48 -39 15
-85 38 -102 50 -31 22 -165 84 -183 84 -6 0 -43 18 -82 41 -40 22 -90 47 -112
55 -46 16 -207 120 -296 192 -117 94 -374 352 -538 542 -133 153 -266 326
-361 468 -26 40 -60 89 -76 109 -15 20 -59 100 -97 177 -204 413 -433 1360
-509 2106 -42 408 -46 487 -44 932 2 533 14 752 50 903 24 103 41 288 42 463
1 50 -2 62 -15 62 -9 0 -26 -25 -44 -62z"/>
</g>
</svg>
